<?xml version="1.0" standalone="no"?>
<!DOCTYPE svg PUBLIC "-//W3C//DTD SVG 20010904//EN"
 "http://www.w3.org/TR/2001/REC-SVG-20010904/DTD/svg10.dtd">
<svg version="1.0" xmlns="http://www.w3.org/2000/svg"
 width="405.000000pt" height="113.000000pt" viewBox="0 0 405.000000 113.000000"
 preserveAspectRatio="xMidYMid meet">

<g transform="translate(0.000000,113.000000) scale(0.100000,-0.100000)"
fill="#000000" stroke="none">
<path d="M402 923 c-32 -6 -70 -86 -82 -174 -6 -40 -20 -108 -31 -152 -11 -43
-18 -82 -15 -84 5 -5 263 -73 278 -73 4 0 21 46 39 103 17 56 34 109 38 117 3
8 7 -65 9 -162 l2 -178 154 0 154 0 12 30 c21 52 35 54 55 10 17 -38 20 -40
62 -40 l44 0 -42 81 c-46 88 -46 82 6 167 l26 42 -34 0 c-28 0 -39 -6 -55 -32
l-20 -31 -16 31 c-14 28 -22 32 -56 32 -22 0 -40 -2 -40 -5 0 -3 14 -32 30
-65 17 -33 30 -65 30 -71 0 -6 -15 -37 -32 -68 -27 -46 -34 -52 -36 -33 -3 21
-8 22 -78 22 l-74 0 0 50 0 50 60 0 60 0 0 30 0 30 -60 0 -60 0 0 45 0 45 75
0 75 0 0 35 0 35 -116 0 -116 0 7 45 c9 62 -1 100 -31 120 -20 13 -28 14 -40
4 -11 -9 -14 -9 -14 1 0 10 -3 10 -15 0 -19 -15 -75 -3 -75 16 0 9 -5 12 -10
9 -6 -3 -13 1 -16 9 -6 16 -10 17 -52 9z m18 -41 c0 -5 -9 -17 -20 -27 -22
-20 -26 -14 -10 16 11 19 30 26 30 11z m201 -92 l-7 -35 -7 39 c-7 42 1 68 14
45 4 -8 4 -30 0 -49z m-115 -36 c-7 -19 -35 -18 -43 1 -3 9 2 22 13 30 16 11
20 11 27 -1 5 -9 6 -22 3 -30z"/>
<path d="M2030 653 c0 -44 -3 -54 -12 -45 -15 15 -63 16 -89 2 -34 -18 -51
-68 -51 -145 0 -103 31 -155 93 -155 13 0 33 10 46 22 20 18 23 19 23 5 0 -13
9 -17 35 -17 l35 0 0 195 0 195 -40 0 -40 0 0 -57z m-6 -109 c3 -9 6 -44 6
-79 0 -35 -3 -70 -6 -79 -8 -22 -41 -20 -54 3 -11 21 -13 112 -4 149 7 26 48
31 58 6z"/>
<path d="M2460 516 l0 -196 45 0 45 0 0 75 0 75 45 0 c90 0 132 47 122 136 -3
32 -13 55 -31 73 -24 24 -34 26 -126 29 l-100 4 0 -196z m160 105 c16 -31 12
-59 -12 -75 -44 -31 -58 -22 -58 39 0 54 0 55 30 55 19 0 33 -7 40 -19z"/>
<path d="M3030 515 l0 -195 40 0 40 0 0 195 0 195 -40 0 -40 0 0 -195z"/>
<path d="M3172 673 c3 -37 4 -38 43 -38 39 0 40 1 43 38 l3 37 -46 0 -46 0 3
-37z"/>
<path d="M1150 655 c0 -33 -4 -45 -15 -45 -10 0 -15 -10 -15 -30 0 -19 5 -30
14 -30 10 0 15 -25 18 -102 6 -119 19 -138 94 -138 44 0 44 0 44 35 0 30 -3
35 -24 35 -30 0 -36 16 -36 100 0 67 0 69 28 72 21 2 28 9 30 30 3 23 -1 27
-25 30 -25 3 -28 7 -31 46 -3 42 -3 42 -43 42 l-39 0 0 -45z"/>
<path d="M1372 604 c-72 -50 -79 -212 -10 -269 22 -19 41 -25 75 -25 38 0 50
5 79 34 38 38 44 66 15 66 -11 0 -26 2 -33 5 -9 4 -19 -4 -26 -20 -8 -17 -20
-25 -36 -25 -26 0 -36 16 -36 61 l0 29 75 0 75 0 0 30 c0 42 -23 94 -51 114
-30 20 -98 21 -127 0z m96 -76 c3 -26 1 -28 -32 -28 -37 0 -43 10 -30 45 4 10
16 15 33 13 20 -2 27 -9 29 -30z"/>
<path d="M1697 603 c-11 -11 -17 -13 -17 -5 0 7 -15 12 -40 12 l-40 0 0 -145
0 -145 40 0 40 0 0 98 c0 121 5 142 35 142 31 0 35 -15 35 -136 l0 -104 40 0
40 0 0 124 c0 110 -2 126 -21 150 -25 31 -84 36 -112 9z"/>
<path d="M2211 594 c-71 -59 -66 -223 8 -267 36 -21 99 -22 129 -1 19 13 52
63 52 77 0 3 -16 7 -36 9 -31 4 -37 1 -45 -20 -7 -18 -15 -23 -37 -20 -24 3
-27 7 -30 46 l-3 42 77 0 77 0 -6 45 c-4 25 -14 56 -22 69 -34 51 -115 62
-164 20z m104 -64 c0 -21 -5 -26 -32 -28 -29 -3 -33 0 -33 21 0 31 9 39 40 35
19 -2 25 -9 25 -28z"/>
<path d="M2803 608 c-52 -25 -75 -165 -39 -240 31 -65 121 -80 178 -29 33 29
33 29 33 126 0 97 0 97 -33 126 -25 23 -41 29 -75 28 -23 0 -52 -5 -64 -11z
m87 -67 c5 -11 10 -45 10 -76 0 -65 -13 -95 -39 -95 -25 0 -31 19 -31 95 0 35
3 70 6 79 8 22 41 20 54 -3z"/>
<path d="M3170 465 l0 -145 45 0 45 0 0 145 0 145 -45 0 -45 0 0 -145z"/>
<path d="M3337 340 c3 -11 10 -20 17 -20 6 0 5 -4 -3 -9 -7 -5 -10 -14 -7 -20
12 -19 26 -12 26 14 0 14 -4 25 -10 25 -5 0 -7 7 -4 15 4 9 0 15 -9 15 -10 0
-13 -7 -10 -20z"/>
<path d="M3280 320 c0 -5 9 -10 20 -10 22 0 27 -15 8 -23 -7 -3 -3 -6 9 -6 17
-1 21 3 16 17 -11 28 -53 46 -53 22z"/>
<path d="M3481 321 l-24 -7 26 -17 c16 -10 24 -23 21 -31 -3 -8 -1 -23 5 -33
10 -17 10 -17 12 2 1 11 2 25 4 30 1 6 3 16 3 24 1 7 8 11 16 8 16 -6 40 16
29 26 -8 9 -60 7 -92 -2z"/>
<path d="M3322 258 c0 -7 -5 -30 -10 -50 -8 -31 -7 -38 5 -38 10 0 13 8 9 30
-2 16 0 32 5 36 11 7 12 34 1 34 -5 0 -9 -6 -10 -12z"/>
<path d="M3370 225 c0 -8 5 -15 10 -15 6 0 10 7 10 15 0 8 -4 15 -10 15 -5 0
-10 -7 -10 -15z"/>
<path d="M3405 230 c3 -5 10 -10 16 -10 5 0 9 5 9 10 0 6 -7 10 -16 10 -8 0
-12 -4 -9 -10z"/>
<path d="M3450 220 c0 -5 5 -10 10 -10 6 0 10 5 10 10 0 6 -4 10 -10 10 -5 0
-10 -4 -10 -10z"/>
<path d="M3385 170 c-36 -5 -38 -6 -20 -17 11 -6 37 -14 58 -18 33 -6 36 -5
31 10 -5 13 -3 16 7 13 8 -3 14 -17 14 -33 1 -18 9 -34 23 -43 14 -9 22 -10
22 -3 0 6 7 11 15 11 8 0 15 5 15 11 0 5 -4 7 -10 4 -5 -3 -8 0 -6 7 15 49 16
68 1 68 -8 0 -15 -7 -15 -16 0 -12 -4 -14 -12 -7 -18 14 -75 20 -123 13z"/>
<path d="M3555 150 c3 -5 8 -10 11 -10 2 0 4 5 4 10 0 6 -5 10 -11 10 -5 0 -7
-4 -4 -10z"/>
<path d="M3255 109 c-4 -5 -18 -14 -31 -19 -29 -11 -32 -40 -4 -40 11 0 20 -4
20 -10 0 -5 -20 -10 -45 -10 -33 0 -45 -4 -45 -15 0 -21 115 -21 137 0 15 16
14 24 -9 59 -10 15 -10 19 0 23 6 3 12 9 12 14 0 13 -27 11 -35 -2z m5 -29 c0
-5 -4 -10 -10 -10 -5 0 -10 5 -10 10 0 6 5 10 10 10 6 0 10 -4 10 -10z m-3
-52 c-3 -8 -6 -5 -6 6 -1 11 2 17 5 13 3 -3 4 -12 1 -19z"/>
<path d="M3314 96 c1 -25 16 -26 16 -1 0 7 6 16 13 18 6 3 2 6 -9 6 -17 1 -22
-4 -20 -23z"/>
<path d="M3565 101 c3 -10 1 -31 -5 -46 -16 -42 2 -55 71 -55 44 0 59 4 59 14
0 9 -15 15 -44 17 -24 2 -42 1 -40 -3 2 -4 0 -9 -5 -12 -5 -3 -11 0 -14 8 -6
15 12 26 44 26 31 0 16 41 -18 46 -9 2 -19 8 -21 13 -2 6 -10 11 -19 11 -9 0
-12 -6 -8 -19z m40 -21 c3 -5 2 -10 -4 -10 -5 0 -13 5 -16 10 -3 6 -2 10 4 10
5 0 13 -4 16 -10z"/>
<path d="M3382 90 c0 -14 2 -19 5 -12 2 6 2 18 0 25 -3 6 -5 1 -5 -13z"/>
<path d="M3340 80 c0 -5 5 -10 11 -10 5 0 7 5 4 10 -3 6 -8 10 -11 10 -2 0 -4
-4 -4 -10z"/>
<path d="M3409 77 c5 -5 21 -7 37 -5 27 3 26 4 -8 9 -22 3 -34 1 -29 -4z"/>
</g>
</svg>
